<svg xmlns="http://www.w3.org/2000/svg" width="29.133" height="30.833" viewBox="0 0 29.133 30.833">
  <g id="Iconly_Two-tone_Bag" data-name="Iconly/Two-tone/Bag" transform="translate(0.999 1)">
    <g id="Bag" transform="translate(0)">
      <path id="Path_33955" d="M19.819,22.023H7.3c-4.6,0-8.128-1.661-7.126-8.348L1.338,4.613C1.956,1.277,4.084,0,5.952,0H21.219c1.895,0,3.9,1.373,4.613,4.613L27,13.675C27.851,19.606,24.418,22.023,19.819,22.023Z" transform="translate(0 6.81)" fill="rgba(206,235,241,0)" stroke="#ff7468" stroke-linecap="round" stroke-linejoin="round" stroke-miterlimit="10" stroke-width="2"/>
      <path id="Path_33956" d="M12.989,6.481A6.481,6.481,0,0,0,6.508,0h0A6.481,6.481,0,0,0,0,6.481H0" transform="translate(7.036 0)" fill="rgba(206,235,241,0)" stroke="#ff7468" stroke-linecap="round" stroke-linejoin="round" stroke-miterlimit="10" stroke-width="2" opacity="0.4"/>
      <path id="Line_192" d="M.5.458H.435" transform="translate(17.489 12.778)" fill="rgba(206,235,241,0)" stroke="#ff7468" stroke-linecap="round" stroke-linejoin="round" stroke-miterlimit="10" stroke-width="2"/>
      <path id="Line_193" d="M.5.458H.435" transform="translate(8.743 12.778)" fill="rgba(206,235,241,0)" stroke="#ff7468" stroke-linecap="round" stroke-linejoin="round" stroke-miterlimit="10" stroke-width="2"/>
    </g>
  </g>
</svg>
