<svg xmlns="http://www.w3.org/2000/svg" width="52" height="52" viewBox="0 0 52 52">
  <g id="Group_13893" data-name="Group 13893" transform="translate(-1183 -1747)">
    <path id="Ellipse_496" data-name="Ellipse 496" d="M52,26A26,26,0,1,1,26,0,26,26,0,0,1,52,26Z" transform="translate(1183 1747)" fill="#fff6dd"/>
    <g id="Group_4185" data-name="Group 4185" transform="translate(1197 1761)">
      <g id="codesandbox">
        <path id="Vector" d="M9.5,20a1.493,1.493,0,0,0,.75-.2l.25.433-.058-.1-.192-.332h0l7-4h0A1.5,1.5,0,0,0,18,14.5v-8a1.5,1.5,0,0,0-.75-1.3h0l-7-4,0,0a1.5,1.5,0,0,0-1.5,0l0,0-7,4h0a1.5,1.5,0,0,0-.548.548l-.866-.5a2.494,2.494,0,0,1,.914-.914l.275.476-.041-.071L1.25,4.335l0,0,7-4h0a2.5,2.5,0,0,1,2.5,0h0l7,4,0,0-.234.405-.041.071.275-.476A2.5,2.5,0,0,1,19,6.5h0v8a2.5,2.5,0,0,1-1.25,2.163h0l-7,4h0A2.505,2.505,0,0,1,9.5,21Zm8.249-3.335-.25-.433.04.07ZM10.25,1.2,10.484.8l.041-.071Zm-1.5,0L8.475.724,8.516.8Zm-.5,19.461h0l-7-4h0a2.5,2.5,0,0,1-.914-.914l.866-.5a1.5,1.5,0,0,0,.548.548h0l7,4h0l-.192.332-.058.1.25-.433A1.5,1.5,0,0,0,9.5,20v1A2.506,2.506,0,0,1,8.25,20.661Zm-7-4L1.46,16.3l.04-.07ZM0,14.5v-8H0A2.493,2.493,0,0,1,.336,5.249l.866.5A1.5,1.5,0,0,0,1,6.5v8a1.5,1.5,0,0,0,.2.75l-.866.5A2.494,2.494,0,0,1,0,14.5Z" transform="translate(2.5 1.503)" fill="#f5b400"/>
        <path id="Vector-2" data-name="Vector" d="M4.75,3.533.25.933l.5-.866L5,2.523,9.25.068l.5.866-4.5,2.6a.5.5,0,0,1-.5,0Zm.5,0L5,3.1H5Zm4-3.466a.5.5,0,1,1,.5.866ZM.068.25A.5.5,0,0,1,.751.068L.25.933A.5.5,0,0,1,.068.25Z" transform="translate(7 3.709)" fill="#f5b400"/>
        <path id="Vector-3" data-name="Vector" d="M4.5,8.29v-4.9L.25.933l.5-.866,4.5,2.6A.5.5,0,0,1,5.5,3.1h0V8.29a.5.5,0,1,1-1,0ZM.068.25A.5.5,0,0,1,.751.068L.25.933A.5.5,0,0,1,.068.25Z" transform="translate(2.5 11.5)" fill="#f5b400"/>
        <path id="Vector-4" data-name="Vector" d="M0,8.29V3.1H0a.5.5,0,0,1,.25-.434l4.5-2.6.5.866L1,3.389v4.9a.5.5,0,1,1-1,0ZM4.75.068a.5.5,0,1,1,.5.866Z" transform="translate(16 11.5)" fill="#f5b400"/>
        <path id="Vector-5" data-name="Vector" d="M8.979,5.983.249.933l.5-.866,8.479,4.9,8.479-4.9.5.866-8.73,5.05a.5.5,0,0,1-.5,0Zm0,0,.251-.433h0ZM17.709.068a.5.5,0,1,1,.5.866ZM.068.249A.5.5,0,0,1,.751.068l-.5.866A.5.5,0,0,1,.068.249Z" transform="translate(2.77 6.46)" fill="#f5b400"/>
        <path id="Vector-6" data-name="Vector" d="M0,10.58V.5H1V10.58a.5.5,0,0,1-1,0ZM0,.5a.5.5,0,1,1,1,0Z" transform="translate(11.5 11.5)" fill="#f5b400"/>
      </g>
    </g>
  </g>
</svg>
