<svg xmlns="http://www.w3.org/2000/svg" width="52" height="52" viewBox="0 0 52 52">
  <g id="Group_13894" data-name="Group 13894" transform="translate(-793 -1747)">
    <path id="Ellipse_496" data-name="Ellipse 496" d="M52,26A26,26,0,1,1,26,0,26,26,0,0,1,52,26Z" transform="translate(793 1747)" fill="#e1ddff"/>
    <g id="Support" transform="translate(807 1761)">
      <path id="Subtract" d="M0,10.9A10.9,10.9,0,0,1,10.9,0V1.8A9.063,9.063,0,0,0,5.172,3.829L7.454,6.111A5.875,5.875,0,0,1,10.9,5V6.8A4.083,4.083,0,0,0,8.03,7.972L8,8l-.029.029h0a4.1,4.1,0,0,0,0,5.74L8,13.8l.029.029a4.1,4.1,0,0,0,5.74,0L13.8,13.8l.029-.029A4.083,4.083,0,0,0,15,10.9h1.8a5.877,5.877,0,0,1-1.111,3.446l2.282,2.282a9.1,9.1,0,0,0,0-11.455L15.69,7.454A5.878,5.878,0,0,1,16.8,10.9H15a4.083,4.083,0,0,0-1.173-2.87L13.8,8l-.029-.029A4.083,4.083,0,0,0,10.9,6.8V5a5.876,5.876,0,0,1,3.446,1.11l2.282-2.282A9.063,9.063,0,0,0,10.9,1.8V0A10.9,10.9,0,1,1,0,10.9ZM10.9,20a9.063,9.063,0,0,0,5.728-2.028L14.346,15.69a5.9,5.9,0,0,1-6.892,0L5.172,17.971A9.063,9.063,0,0,0,10.9,20ZM3.829,16.628l2.282-2.282a5.9,5.9,0,0,1,0-6.892L3.829,5.172a9.1,9.1,0,0,0,0,11.456Z" transform="translate(1.1 1.1)" fill="#5b45ff"/>
    </g>
  </g>
</svg>
