<svg xmlns="http://www.w3.org/2000/svg" width="36" height="36" viewBox="0 0 36 36">
  <g id="Iconly_Two-tone_Category" data-name="Iconly/Two-tone/Category" transform="translate(1 1)">
    <g id="Category">
      <path id="Stroke_1" data-name="Stroke 1" d="M4.163,0H9.716a4.181,4.181,0,0,1,4.161,4.2V9.8A4.182,4.182,0,0,1,9.716,14H4.163A4.182,4.182,0,0,1,0,9.8V4.2A4.181,4.181,0,0,1,4.163,0Z" transform="translate(20.122)" fill="none" stroke="#36c1cc" stroke-linecap="round" stroke-linejoin="round" stroke-miterlimit="10" stroke-width="2" opacity="0.4"/>
      <path id="Stroke_3" data-name="Stroke 3" d="M4.163,0H9.715a4.181,4.181,0,0,1,4.163,4.2V9.8A4.182,4.182,0,0,1,9.715,14H4.163A4.182,4.182,0,0,1,0,9.8V4.2A4.181,4.181,0,0,1,4.163,0Z" fill="none" stroke="#36c1cc" stroke-linecap="round" stroke-linejoin="round" stroke-miterlimit="10" stroke-width="2"/>
      <path id="Stroke_5" data-name="Stroke 5" d="M4.163,0H9.715a4.182,4.182,0,0,1,4.163,4.2V9.8A4.181,4.181,0,0,1,9.715,14H4.163A4.181,4.181,0,0,1,0,9.8V4.2A4.182,4.182,0,0,1,4.163,0Z" transform="translate(0 20.002)" fill="none" stroke="#36c1cc" stroke-linecap="round" stroke-linejoin="round" stroke-miterlimit="10" stroke-width="2"/>
      <path id="Stroke_7" data-name="Stroke 7" d="M4.163,0H9.716a4.181,4.181,0,0,1,4.161,4.2V9.8A4.181,4.181,0,0,1,9.716,14H4.163A4.181,4.181,0,0,1,0,9.8V4.2A4.182,4.182,0,0,1,4.163,0Z" transform="translate(20.122 20.002)" fill="none" stroke="#36c1cc" stroke-linecap="round" stroke-linejoin="round" stroke-miterlimit="10" stroke-width="2"/>
    </g>
  </g>
</svg>
