<svg xmlns="http://www.w3.org/2000/svg" width="90" height="89.903" viewBox="0 0 90 89.903">
  <g id="Group_13895" data-name="Group 13895" transform="translate(-902.597 -3817.901)">
    <rect id="Rectangle_3086" data-name="Rectangle 3086" width="90" height="89.902" transform="translate(902.597 3817.901)" fill="#36c1cc"/>
    <g id="icons_quote-left" data-name="icons/quote-left" transform="translate(925.931 3843.912)">
      <path id="quote-left" d="M28.071,38A4.072,4.072,0,0,1,24,33.928V13.571A13.568,13.568,0,0,1,37.571,0h.679a2.031,2.031,0,0,1,2.036,2.036V6.107A2.032,2.032,0,0,1,38.25,8.143h-.679a5.433,5.433,0,0,0-5.429,5.428V19h6.786A4.073,4.073,0,0,1,43,23.072V33.928A4.073,4.073,0,0,1,38.929,38Zm-24,0A4.072,4.072,0,0,1,0,33.928V13.571A13.568,13.568,0,0,1,13.571,0h.679a2.03,2.03,0,0,1,2.036,2.036V6.107A2.031,2.031,0,0,1,14.25,8.143h-.679a5.432,5.432,0,0,0-5.428,5.428V19h6.785A4.072,4.072,0,0,1,19,23.072V33.928A4.072,4.072,0,0,1,14.928,38Z" fill="#fff"/>
    </g>
  </g>
</svg>
