<svg xmlns="http://www.w3.org/2000/svg" width="52" height="52" viewBox="0 0 52 52">
  <g id="Group_13895" data-name="Group 13895" transform="translate(-403 -1747)">
    <path id="Ellipse_496" data-name="Ellipse 496" d="M52,26A26,26,0,1,1,26,0,26,26,0,0,1,52,26Z" transform="translate(403 1747)" fill="#fff0e9"/>
    <g id="Group_4183" data-name="Group 4183" transform="translate(414 1758)">
      <g id="chrome">
        <path id="Vector" d="M0,13.5A13.5,13.5,0,0,1,13.5,0V2A11.5,11.5,0,1,0,25,13.5,11.5,11.5,0,0,0,13.5,2V0A13.5,13.5,0,1,1,0,13.5Z" transform="translate(1.5 1.5)" fill="#ff7468"/>
        <path id="Vector-2" data-name="Vector" d="M0,6A6,6,0,0,1,6,0V2a4,4,0,1,0,4,4A4,4,0,0,0,6,2V0A6,6,0,1,1,0,6Z" transform="translate(9 9)" fill="#ff7468"/>
        <path id="Vector-3" data-name="Vector" d="M1,2V0H12.462a1,1,0,0,1,0,2ZM0,1A1,1,0,0,1,1,0V2A1,1,0,0,1,0,1Z" transform="translate(14 9)" fill="#ff7468"/>
        <path id="Vector-4" data-name="Vector" d="M5.872,11.425.134,1.5,1.866.5,7.6,10.425a1,1,0,1,1-1.732,1ZM.5.134A1,1,0,0,1,1.866.5L.134,1.5A1,1,0,0,1,.5.134Z" transform="translate(3.937 6.574)" fill="#ff7468"/>
        <path id="Vector-5" data-name="Vector" d="M.5,11.792a1,1,0,0,1-.366-1.366L5.859.5l1.733,1L1.867,11.425A1,1,0,0,1,.5,11.792ZM5.859.5a1,1,0,0,1,1.733,1Z" transform="translate(12.6 16.5)" fill="#ff7468"/>
      </g>
    </g>
  </g>
</svg>
