<svg xmlns="http://www.w3.org/2000/svg" width="29.25" height="26.28" viewBox="0 0 29.25 26.28">
  <g id="Iconly_Two-tone_Camera" data-name="Iconly/Two-tone/Camera" transform="translate(0.75 0.75)">
    <g id="Camera">
      <path id="Stroke_1" data-name="Stroke 1" d="M22.332,5.04h0a1.443,1.443,0,0,1-1.3-.827c-.431-.912-.978-2.077-1.3-2.712A2.513,2.513,0,0,0,17.4,0c-.018,0-7.026,0-7.044,0A2.514,2.514,0,0,0,8.025,1.5c-.322.635-.87,1.8-1.3,2.712a1.445,1.445,0,0,1-1.3.827h0A5.418,5.418,0,0,0,0,10.458v8.9A5.419,5.419,0,0,0,5.419,24.78H22.332a5.419,5.419,0,0,0,5.418-5.418v-8.9A5.418,5.418,0,0,0,22.332,5.04Z" fill="none" stroke="#5b45ff" stroke-linecap="round" stroke-linejoin="round" stroke-miterlimit="10" stroke-width="1.5"/>
      <path id="Stroke_3" data-name="Stroke 3" d="M0,4.773A4.768,4.768,0,1,0,4.773,0,4.785,4.785,0,0,0,0,4.773Z" transform="translate(9.107 9.604)" fill="none" stroke="#5b45ff" stroke-linecap="round" stroke-linejoin="round" stroke-miterlimit="10" stroke-width="1.5" opacity="0.6"/>
      <path id="Fill_5" data-name="Fill 5" d="M1.354,2.993a1.627,1.627,0,0,1-.448-.117,1.512,1.512,0,0,1-.482-.332A1.531,1.531,0,0,1,0,1.5,1.457,1.457,0,0,1,.123.91,1.526,1.526,0,0,1,.477.4,1.716,1.716,0,0,1,.934.105,1.534,1.534,0,0,1,2.557.428,1.443,1.443,0,0,1,2.841.82l.034.088A1.461,1.461,0,0,1,3,1.5a1.524,1.524,0,0,1-.438,1.058,1.494,1.494,0,0,1-.913.434L1.5,3Z" transform="translate(19.875 7.875)" fill="#5b45ff" stroke="#5b45ff" stroke-width="1" opacity="0.6"/>
    </g>
  </g>
</svg>
