<svg xmlns="http://www.w3.org/2000/svg" width="697.006" height="287.999" viewBox="0 0 697.006 287.999">
  <g id="Group_13896" data-name="Group 13896" transform="translate(-79 -111.156)">
    <g id="Group_13893" data-name="Group 13893" transform="translate(79 141)" opacity="0.8">
      <path id="BG" d="M0,9.472C0,4.241,4.868,0,10.874,0H686.133c6.008,0,10.874,4.241,10.874,9.472V225.764c0,4.9-4.3,9-9.9,9.434L11.845,287.961C5.482,288.458,0,284.092,0,278.527Z" transform="translate(0 -29.844)" fill="#f4fcfd"/>
      <g id="Group_19875" data-name="Group 19875" transform="translate(634.397 -25.469) rotate(90)">
        <path id="Rectangle_3018" data-name="Rectangle 3018" d="M0,50.845A50.845,50.845,0,0,1,50.845,0h2.08V52.925H0Z" transform="translate(0 52.925)" fill="#5b6f7f"/>
        <path id="Rectangle_3019" data-name="Rectangle 3019" d="M0,50.845A50.845,50.845,0,0,1,50.845,0h2.08V52.925H0Z" transform="translate(52.925 0)" fill="#8e9091"/>
        <path id="Ellipse_505" data-name="Ellipse 505" d="M52.925,26.462A26.462,26.462,0,1,1,26.462,0,26.462,26.462,0,0,1,52.925,26.462Z" transform="translate(0 0)" fill="#36c1cc"/>
      </g>
      <path id="Shape" d="M31.806,63.611A31.806,31.806,0,1,1,63.611,31.806,31.806,31.806,0,0,1,31.806,63.611Z" transform="translate(410.221 194.544)" fill="#46c3cd"/>
    </g>
    <g id="Dots_Shapes" data-name="Dots &amp; Shapes" transform="translate(551.464 147.433) rotate(90)">
      <path id="Ellipse_487" data-name="Ellipse 487" d="M4.349,0A4.349,4.349,0,1,1,0,4.349,4.349,4.349,0,0,1,4.349,0Z" transform="translate(0 157.125)" fill="#36c1cc"/>
      <path id="Ellipse_494" data-name="Ellipse 494" d="M3.262,0A3.262,3.262,0,1,1,0,3.262,3.262,3.262,0,0,1,3.262,0Z" transform="translate(59.262 376.231)" fill="#36c1cc"/>
      <path id="Ellipse_493" data-name="Ellipse 493" d="M4.349,0A4.349,4.349,0,1,1,0,4.349,4.349,4.349,0,0,1,4.349,0Z" transform="translate(152.776 0)" fill="#fdbf50"/>
      <path id="Ellipse_495" data-name="Ellipse 495" d="M2.175,0A2.175,2.175,0,1,1,0,2.175,2.175,2.175,0,0,1,2.175,0Z" transform="translate(141.902 259.882)" fill="#36c1cc"/>
    </g>
    <path id="Vector_1319" data-name="Vector 1319" d="M5.557,45.208A8.787,8.787,0,0,1,.989,42.234,5.589,5.589,0,0,1,.228,37.4c1.872-7.32,7.921-14.764,16.74-20.616A70.611,70.611,0,0,1,50.493,5.667c5.224-.391,8.8-.061,11.129.758s3.461,2.159,3.673,3.768a7.931,7.931,0,0,1-1.51,4.995,23.69,23.69,0,0,1-3.919,4.6l-.005.005-.006,0-.171-.207,0,0,.175.212a128.147,128.147,0,0,1-19.5,13.035c-7.98,4.3-16.732,7.7-23.949,7.5-3.583-.1-5.652-.958-6.493-2.422s-.372-3.385.725-5.38c2.208-4.017,7.183-8.742,11.074-11.86l.34.424c-3.883,3.112-8.784,7.781-10.937,11.7-1.084,1.972-1.417,3.652-.73,4.848S12.864,39.7,16.422,39.8c7.066.193,15.712-3.149,23.677-7.44A127.664,127.664,0,0,0,59.5,19.386,23.157,23.157,0,0,0,63.324,14.9a7.413,7.413,0,0,0,1.431-4.634c-.178-1.349-1.1-2.549-3.315-3.326s-5.71-1.118-10.907-.729A70.071,70.071,0,0,0,17.269,17.237C8.516,23.046,2.582,30.391.755,37.536a5.049,5.049,0,0,0,.677,4.381,8.255,8.255,0,0,0,4.293,2.773c3.961,1.285,9.9,1.344,16.849-.053C36.452,41.845,54.21,33.26,67.839,17.3l.413.353C54.537,33.713,36.668,42.356,22.681,45.17a49.422,49.422,0,0,1-9.642,1.043A24.634,24.634,0,0,1,5.557,45.208ZM67.839,17.3a26.248,26.248,0,0,0,5.091-7.984c.733-2.15.571-3.795-.249-5.046a7.658,7.658,0,0,0-4.492-2.794A30.665,30.665,0,0,0,60.3.547C47.992.418,29.647,4.414,16.489,8.151l-.149-.523C29.506,3.889,47.914-.127,60.307,0a31.184,31.184,0,0,1,8.03.953,8.18,8.18,0,0,1,4.8,3.018c.939,1.432,1.079,3.263.309,5.52a26.771,26.771,0,0,1-5.192,8.161Z" transform="translate(407.125 197.151)" fill="#58c7d2"/>
  </g>
</svg>
