<svg xmlns="http://www.w3.org/2000/svg" xmlns:xlink="http://www.w3.org/1999/xlink" width="1440" height="604" viewBox="0 0 1440 604">
  <defs>
    <clipPath id="clip-path">
      <rect id="Rectangle_18109" data-name="Rectangle 18109" width="1440" height="604" transform="translate(2966 3835)" fill="none"/>
    </clipPath>
  </defs>
  <g id="Mask_Group_6" data-name="Mask Group 6" transform="translate(-2966 -3835)" clip-path="url(#clip-path)">
    <g id="Group_19729" data-name="Group 19729" transform="matrix(0.978, 0.208, -0.208, 0.978, 3690.881, 1995.905)" opacity="0.03">
      <path id="Vector_1324" data-name="Vector 1324" d="M0,57.744c57.978,38.58,191.328,96.7,260.9,20.525C347.869-16.945,454.745-36.9,530.187,83.97s170.267,240.6,244.661,181.877S878.58,121.031,922.587,82.261s95.35-18.245,158.742,43.331,133.594,102.626,216.895,6.272c48.762-56.4,194.891-58.725,220.562-58.725" transform="translate(264.838 2277.27) rotate(-174.81)" fill="none" stroke="#07b9b3" stroke-width="2"/>
      <path id="Vector_1325" data-name="Vector 1325" d="M0,105.081c57.978,38.58,185.352,107.406,267.189,11.806C359.919,8.561,456.557-17.674,545.38,105.078c71.249,98.466,179.7,205.088,254.091,146.364S884.817,108.955,921.016,61.575c38.769-50.743,100.065-40.48,163.457,21.1s149.29,113.206,212.179,17.674C1346.946,23.946,1495.734,0,1521.4,0" transform="translate(275.877 2242.609) rotate(-174.81)" fill="none" stroke="#07b9b3" stroke-width="2"/>
      <path id="Vector_1326" data-name="Vector 1326" d="M0,74.864c57.978,38.58,167.369,101.829,260.378,19.21C382.971-14.824,460.1-17.792,546.951,106.617,618.2,208.672,709.36,321.56,783.754,262.836S894.8,80.658,946.163,54.734c36.149-18.245,69.155,9.692,123.64,45.041,72.985,47.351,145.913,107.187,214.8,6.272C1339.088,26.227,1494.162,0,1519.833,0" transform="translate(268.067 2259.078) rotate(-174.81)" fill="none" stroke="#07b9b3" stroke-width="2"/>
      <path id="Vector_1327" data-name="Vector 1327" d="M0,80.067c86.534,84.888,240.086,141.155,318.147,62.476,116.1-117.021,167.124-168.19,291.288-25.086C694.3,215.271,785.466,318.149,859.86,259.424S957.829,23.966,1033.794,18.833c39.771-2.687,63.916,19.369,118.925,53.576,73.776,45.877,117.354,92.362,217.942-10.831C1417.181,13.854,1532.547,5.131,1583.889,0" transform="translate(338.757 2223.707) rotate(-174.81)" fill="none" stroke="#07b9b3" stroke-width="2"/>
    </g>
  </g>
</svg>
